<svg width="124" height="205" viewBox="0 0 124 205" fill="none" xmlns="http://www.w3.org/2000/svg">
<rect x="-1.5" y="-1.5" width="123" height="121" rx="2.5" transform="matrix(-1.19249e-08 -1 -1 1.19249e-08 121 154)" fill="#D2B771" stroke="black" stroke-width="3"/>
<mask id="path-2-inside-1" fill="white">
<path fill-rule="evenodd" clip-rule="evenodd" d="M26.7903 155L0.999999 155L1 192.126L0.999573 192.126L0.999573 201C0.999573 201.02 0.999718 201.039 1 201.059L1 205L4.97003 205L4.99957 205L10.6662 205L10.6958 205L124 205L124 157L124 155L124 124L26.7903 124L26.7903 155Z"/>
</mask>
<path fill-rule="evenodd" clip-rule="evenodd" d="M26.7903 155L0.999999 155L1 192.126L0.999573 192.126L0.999573 201C0.999573 201.02 0.999718 201.039 1 201.059L1 205L4.97003 205L4.99957 205L10.6662 205L10.6958 205L124 205L124 157L124 155L124 124L26.7903 124L26.7903 155Z" fill="#886C43"/>
<path d="M0.999999 155L-2 155L-2 152L0.999999 152L0.999999 155ZM26.7903 155L29.7903 155L29.7903 158L26.7903 158L26.7903 155ZM1 192.126L4 192.126L4 195.126L1 195.126L1 192.126ZM0.999573 192.126L-2.00043 192.126L-2.00043 189.126L0.999573 189.126L0.999573 192.126ZM0.999573 201L3.99957 201L0.999573 201ZM1 201.059L3.99969 201.016L4 201.038L4 201.059L1 201.059ZM1 205L1 208L-2 208L-2 205L1 205ZM4.97003 205L4.97003 202L4.98103 202L4.97003 205ZM4.99957 205L4.99957 208L4.98858 208L4.99957 205ZM10.6662 205L10.6772 208L10.6662 208L10.6662 205ZM10.6958 205L10.6848 202L10.6958 202L10.6958 205ZM124 205L127 205L127 208L124 208L124 205ZM124 124L124 121L127 121L127 124L124 124ZM26.7903 124L23.7903 124L23.7903 121L26.7903 121L26.7903 124ZM0.999999 152L26.7903 152L26.7903 158L0.999999 158L0.999999 152ZM-2 192.126L-2 155L4 155L4 192.126L-2 192.126ZM0.999573 189.126L1 189.126L1 195.126L0.999573 195.126L0.999573 189.126ZM-2.00043 201L-2.00043 192.126L3.99957 192.126L3.99957 201L-2.00043 201ZM-1.99969 201.102C-2.00018 201.068 -2.00043 201.034 -2.00043 201L3.99957 201C3.99957 201.005 3.99961 201.01 3.99969 201.016L-1.99969 201.102ZM-2 205L-2 201.059L4 201.059L4 205L-2 205ZM4.97003 208L1 208L1 202L4.97003 202L4.97003 208ZM4.98858 208L4.95904 208L4.98103 202L5.01057 202L4.98858 208ZM10.6662 208L4.99957 208L4.99957 202L10.6662 202L10.6662 208ZM10.7068 208L10.6772 208L10.6553 202L10.6848 202L10.7068 208ZM124 208L10.6958 208L10.6958 202L124 202L124 208ZM127 157L127 205L121 205L121 157L127 157ZM121 157L121 155L127 155L127 157L121 157ZM121 155L121 124L127 124L127 155L121 155ZM124 127L26.7903 127L26.7903 121L124 121L124 127ZM29.7903 124L29.7903 155L23.7903 155L23.7903 124L29.7903 124Z" fill="black" mask="url(#path-2-inside-1)"/>
<mask id="path-4-inside-2" fill="white">
<path fill-rule="evenodd" clip-rule="evenodd" d="M124 127L124 113L124 14L124 11L124 0L27 1.15671e-06L27 14L110 14L110 113L27 113L27 127L124 127Z"/>
</mask>
<path fill-rule="evenodd" clip-rule="evenodd" d="M124 127L124 113L124 14L124 11L124 0L27 1.15671e-06L27 14L110 14L110 113L27 113L27 127L124 127Z" fill="#D2B771"/>
<path d="M124 127L127 127L127 130L124 130L124 127ZM124 0L124 -3L127 -3L127 -3.57746e-08L124 0ZM27 1.15671e-06L24 1.19249e-06L24 -3L27 -3L27 1.15671e-06ZM27 14L27 17L24 17L24 14L27 14ZM110 14L110 11L113 11L113 14L110 14ZM110 113L113 113L113 116L110 116L110 113ZM27 113L24 113L24 110L27 110L27 113ZM27 127L27 130L24 130L24 127L27 127ZM127 113L127 127L121 127L121 113L127 113ZM121 113L121 14L127 14L127 113L121 113ZM121 14L121 11L127 11L127 14L121 14ZM127 -3.57746e-08L127 11L121 11L121 3.57746e-08L127 -3.57746e-08ZM27 -3L124 -3L124 3L27 3L27 -3ZM24 14L24 1.19249e-06L30 1.12094e-06L30 14L24 14ZM110 17L27 17L27 11L110 11L110 17ZM113 14L113 113L107 113L107 14L113 14ZM27 110L110 110L110 116L27 116L27 110ZM24 127L24 113L30 113L30 127L24 127ZM124 130L27 130L27 124L124 124L124 130Z" fill="black" mask="url(#path-4-inside-2)"/>
<rect x="-1.5" y="-1.5" width="31" height="83" transform="matrix(-1.19249e-08 -1 -1 1.19249e-08 110 42)" fill="#886C43" stroke="black" stroke-width="3"/>
</svg>
