<svg width="238" height="51" viewBox="0 0 238 51" fill="none" xmlns="http://www.w3.org/2000/svg">
<path fill-rule="evenodd" clip-rule="evenodd" d="M237.814 51H0.00257874C0.000823975 50.8267 -4.57764e-05 50.6533 -4.57764e-05 50.4796C-4.57764e-05 22.6005 22.6004 0 50.4795 0C65.9762 0 79.8419 6.98288 89.1017 17.9738C94.33 15.1399 100.319 13.5306 106.684 13.5306C113.048 13.5306 119.037 15.1399 124.266 17.9739C133.526 6.98293 147.391 0 162.888 0C181.895 0 198.449 10.505 207.06 26.0258C207.254 26.0222 207.448 26.0204 207.643 26.0204C222.644 26.0204 235.132 36.7783 237.814 51Z" fill="white" fill-opacity="0.34"/>
</svg>
