<svg width="984" height="144" viewBox="0 0 984 144" fill="none" xmlns="http://www.w3.org/2000/svg">
<path d="M34.5 27.5542C18 26.0542 9.5 51.5542 -22.5 55.5542L-31 143.054H984V107.054L973 68.0542L939.5 34.5542C931 26.0542 914.5 27.5542 906 27.5542H867.5L850.5 43.0542C846 47.2208 832 55.5542 812 55.5542C787 55.5542 778.5 34.5542 764.5 27.5542C750.5 20.5542 737 12.5542 720 12.5542C703 12.5542 695 27.5542 687 27.5542C679 27.5542 664.5 27.5542 637 34.5542C609.5 41.5542 601 27.5542 589.5 27.5542C578 27.5542 559 12.5542 545 12.5542C531 12.5542 512 12.5542 492.5 27.5542C476.9 39.5542 460 42.8875 453.5 43.0542C436 37.8875 399.3 27.5542 392.5 27.5542C385.7 27.5542 371.333 17.5542 365 12.5542C357.5 17.5542 341.4 27.5542 337 27.5542C331.5 27.5542 323 43.0542 303.5 43.0542C284 43.0542 276 12.5542 270.5 12.5542C265 12.5542 253.5 1.55418 226 0.0541754C204 -1.14582 196.5 17.8875 195.5 27.5542C186.167 27.5542 165.3 24.5542 156.5 12.5542C147.7 0.554177 136.167 17.5542 131.5 27.5542C117.667 36.8875 88.9 53.0542 84.5 43.0542C79 30.5542 51 29.0542 34.5 27.5542Z" fill="#D0FF6C"/>
</svg>
