<svg width="976" height="144" viewBox="0 0 976 144" fill="none" xmlns="http://www.w3.org/2000/svg">
<path d="M26.5 27.5542C10 26.0542 1.5 51.5542 -30.5 55.5542L-39 143.054H976V107.054L965 68.0542L931.5 34.5542C923 26.0542 906.5 27.5542 898 27.5542H859.5L842.5 43.0542C838 47.2208 824 55.5542 804 55.5542C779 55.5542 770.5 34.5542 756.5 27.5542C742.5 20.5542 729 12.5542 712 12.5542C695 12.5542 687 27.5542 679 27.5542C671 27.5542 656.5 27.5542 629 34.5542C601.5 41.5542 593 27.5542 581.5 27.5542C570 27.5542 551 12.5542 537 12.5542C523 12.5542 504 12.5542 484.5 27.5542C468.9 39.5542 452 42.8875 445.5 43.0542C428 37.8875 391.3 27.5542 384.5 27.5542C377.7 27.5542 363.333 17.5542 357 12.5542C349.5 17.5542 333.4 27.5542 329 27.5542C323.5 27.5542 315 43.0542 295.5 43.0542C276 43.0542 268 12.5542 262.5 12.5542C257 12.5542 245.5 1.55418 218 0.0541754C196 -1.14582 188.5 17.8875 187.5 27.5542C178.167 27.5542 157.3 24.5542 148.5 12.5542C139.7 0.554177 128.167 17.5542 123.5 27.5542C109.667 36.8875 80.9 53.0542 76.5 43.0542C71 30.5542 43 29.0542 26.5 27.5542Z" fill="#BCEC57"/>
</svg>
