<svg width="988" height="144" viewBox="0 0 988 144" fill="none" xmlns="http://www.w3.org/2000/svg">
<path d="M38.5 28.5C22 27 13.5 52.5 -18.5 56.5L-27 144H988V108L977 69L943.5 35.5C935 27 918.5 28.5 910 28.5H871.5L854.5 44C850 48.1666 836 56.5 816 56.5C791 56.5 782.5 35.5 768.5 28.5C754.5 21.5 741 13.5 724 13.5C707 13.5 699 28.5 691 28.5C683 28.5 668.5 28.5 641 35.5C613.5 42.5 605 28.5 593.5 28.5C582 28.5 563 13.5 549 13.5C535 13.5 516 13.5 496.5 28.5C480.9 40.5 464 43.8333 457.5 44C440 38.8333 403.3 28.5 396.5 28.5C389.7 28.5 375.333 18.5 369 13.5C361.5 18.5 345.4 28.5 341 28.5C335.5 28.5 327 44 307.5 44C288 44 280 13.5 274.5 13.5C269 13.5 257.5 2.49998 230 0.999976C208 -0.200024 200.5 18.8333 199.5 28.5C190.167 28.5 169.3 25.5 160.5 13.5C151.7 1.49998 140.167 18.5 135.5 28.5C121.667 37.8333 92.9 54 88.5 44C83 31.5 55 30 38.5 28.5Z" fill="#E4FFAA"/>
</svg>
