<svg width="988" height="195" viewBox="0 0 988 195" fill="none" xmlns="http://www.w3.org/2000/svg">
<path d="M38.5 28.5C22 27 13.5 52.5 -18.5 56.5L-27 144H988V108L977 69L943.5 35.5C935 27 918.5 28.5 910 28.5H871.5L854.5 44C850 48.1666 836 56.5 816 56.5C791 56.5 782.5 35.5 768.5 28.5C754.5 21.5 741 13.5 724 13.5C707 13.5 699 28.5 691 28.5C683 28.5 668.5 28.5 641 35.5C613.5 42.5 605 28.5 593.5 28.5C582 28.5 563 13.5 549 13.5C535 13.5 516 13.5 496.5 28.5C480.9 40.5 464 43.8333 457.5 44C440 38.8333 403.3 28.5 396.5 28.5C389.7 28.5 375.333 18.5 369 13.5C361.5 18.5 345.4 28.5 341 28.5C335.5 28.5 327 44 307.5 44C288 44 280 13.5 274.5 13.5C269 13.5 257.5 2.49998 230 0.999976C208 -0.200024 200.5 18.8333 199.5 28.5C190.167 28.5 169.3 25.5 160.5 13.5C151.7 1.49998 140.167 18.5 135.5 28.5C121.667 37.8333 92.9 54 88.5 44C83 31.5 55 30 38.5 28.5Z" fill="#E4FFAA"/>
<path d="M34.5 59.5542C18 58.0542 9.5 83.5542 -22.5 87.5542L-31 175.054H984V139.054L973 100.054L939.5 66.5542C931 58.0542 914.5 59.5542 906 59.5542H867.5L850.5 75.0542C846 79.2208 832 87.5542 812 87.5542C787 87.5542 778.5 66.5542 764.5 59.5542C750.5 52.5542 737 44.5542 720 44.5542C703 44.5542 695 59.5542 687 59.5542C679 59.5542 664.5 59.5542 637 66.5542C609.5 73.5542 601 59.5542 589.5 59.5542C578 59.5542 559 44.5542 545 44.5542C531 44.5542 512 44.5542 492.5 59.5542C476.9 71.5542 460 74.8875 453.5 75.0542C436 69.8875 399.3 59.5542 392.5 59.5542C385.7 59.5542 371.333 49.5542 365 44.5542C357.5 49.5542 341.4 59.5542 337 59.5542C331.5 59.5542 323 75.0542 303.5 75.0542C284 75.0542 276 44.5542 270.5 44.5542C265 44.5542 253.5 33.5542 226 32.0542C204 30.8542 196.5 49.8875 195.5 59.5542C186.167 59.5542 165.3 56.5542 156.5 44.5542C147.7 32.5542 136.167 49.5542 131.5 59.5542C117.667 68.8875 88.9 85.0542 84.5 75.0542C79 62.5542 51 61.0542 34.5 59.5542Z" fill="#D0FF6C"/>
<path d="M26.5 78.5542C10 77.0542 1.5 102.554 -30.5 106.554L-39 194.054H976V158.054L965 119.054L931.5 85.5542C923 77.0542 906.5 78.5542 898 78.5542H859.5L842.5 94.0542C838 98.2208 824 106.554 804 106.554C779 106.554 770.5 85.5542 756.5 78.5542C742.5 71.5542 729 63.5542 712 63.5542C695 63.5542 687 78.5542 679 78.5542C671 78.5542 656.5 78.5542 629 85.5542C601.5 92.5542 593 78.5542 581.5 78.5542C570 78.5542 551 63.5542 537 63.5542C523 63.5542 504 63.5542 484.5 78.5542C468.9 90.5542 452 93.8875 445.5 94.0542C428 88.8875 391.3 78.5542 384.5 78.5542C377.7 78.5542 363.333 68.5542 357 63.5542C349.5 68.5542 333.4 78.5542 329 78.5542C323.5 78.5542 315 94.0542 295.5 94.0542C276 94.0542 268 63.5542 262.5 63.5542C257 63.5542 245.5 52.5542 218 51.0542C196 49.8542 188.5 68.8875 187.5 78.5542C178.167 78.5542 157.3 75.5542 148.5 63.5542C139.7 51.5542 128.167 68.5542 123.5 78.5542C109.667 87.8875 80.9 104.054 76.5 94.0542C71 81.5542 43 80.0542 26.5 78.5542Z" fill="#BCEC57"/>
</svg>
