<svg width="46" height="44" viewBox="0 0 46 44" fill="none" xmlns="http://www.w3.org/2000/svg">
<rect y="-6.10352e-05" width="46" height="44" rx="6" fill="#E1E1E1"/>
<path d="M20 20.9999H18V22.9999H20V20.9999ZM24 20.9999H22V22.9999H24V20.9999ZM28 20.9999H26V22.9999H28V20.9999ZM30 13.9999H29V11.9999H27V13.9999H19V11.9999H17V13.9999H16C14.89 13.9999 14.01 14.8999 14.01 15.9999L14 29.9999C14 31.0999 14.89 31.9999 16 31.9999H30C31.1 31.9999 32 31.0999 32 29.9999V15.9999C32 14.8999 31.1 13.9999 30 13.9999ZM30 29.9999H16V18.9999H30V29.9999Z" fill="white"/>
</svg>
