<svg width="36" height="37" viewBox="0 0 36 37" fill="none" xmlns="http://www.w3.org/2000/svg">
<path d="M4.50024 7.50323V28.5032C4.50024 30.1532 5.83524 31.5032 7.50024 31.5032H28.5002C30.1502 31.5032 31.5002 30.1532 31.5002 28.5032V7.50323C31.5002 5.85323 30.1502 4.50323 28.5002 4.50323H7.50024C5.83524 4.50323 4.50024 5.85323 4.50024 7.50323ZM22.5002 13.5032C22.5002 15.9932 20.4902 18.0032 18.0002 18.0032C15.5102 18.0032 13.5002 15.9932 13.5002 13.5032C13.5002 11.0132 15.5102 9.00323 18.0002 9.00323C20.4902 9.00323 22.5002 11.0132 22.5002 13.5032ZM9.00024 25.5032C9.00024 22.5032 15.0002 20.8532 18.0002 20.8532C21.0002 20.8532 27.0002 22.5032 27.0002 25.5032V27.0032H9.00024V25.5032Z" fill="#0082AA"/>
</svg>
