<svg width="1159" height="628" viewBox="0 0 1159 628" fill="none" xmlns="http://www.w3.org/2000/svg">
<g style="mix-blend-mode:overlay">
<path fill-rule="evenodd" clip-rule="evenodd" d="M84.8822 104.873C102.263 48.4816 152.457 6.38444 213.286 0.664246L84.8822 104.873ZM78.4939 141.743L250.904 1.82013C256.004 2.6209 261.018 3.67899 265.931 4.98063L78.584 157.026C78.4236 154.204 78.3423 151.362 78.3423 148.5C78.3423 146.236 78.3932 143.983 78.4939 141.743ZM82.9282 185.186C84.1255 189.877 85.5471 194.48 87.181 198.981L305.422 21.8635C301.316 19.3532 297.079 17.0354 292.723 14.9225L82.9282 185.186ZM325.907 36.9232L97.8614 221.999C99.9336 225.614 102.154 229.134 104.514 232.551L334.954 45.533C332.061 42.5397 329.042 39.667 325.907 36.9232ZM350.54 64.5694L120.119 251.572C123.069 254.619 126.15 257.54 129.35 260.327L357.298 75.3312C355.197 71.6426 352.941 68.0525 350.54 64.5694ZM367.925 98.3922L149.889 275.344C153.916 277.791 158.069 280.054 162.335 282.12L372.067 111.908C370.898 107.313 369.513 102.804 367.925 98.3922ZM376.393 140.082L189.145 292.047C194.644 293.5 200.268 294.647 205.998 295.47L376.378 157.195C376.545 154.318 376.629 151.419 376.629 148.5C376.629 145.675 376.55 142.868 376.393 140.082ZM369.293 194.63L244.305 296.066C303.054 289.501 351.479 248.955 369.293 194.63Z" fill="#C4C4C4"/>
</g>
<g style="mix-blend-mode:overlay">
<path fill-rule="evenodd" clip-rule="evenodd" d="M376.501 269.964C384.167 245.091 406.307 226.523 433.137 224L376.501 269.964ZM373.683 286.227L449.729 224.51C451.979 224.863 454.19 225.33 456.357 225.904L373.723 292.968C373.652 291.723 373.616 290.469 373.616 289.207C373.616 288.208 373.639 287.215 373.683 286.227ZM375.639 305.388C376.167 307.458 376.794 309.488 377.515 311.473L473.776 233.351C471.965 232.243 470.096 231.221 468.175 230.289L375.639 305.388ZM482.812 239.993L382.226 321.626C383.14 323.22 384.119 324.773 385.16 326.28L486.802 243.791C485.526 242.47 484.194 241.203 482.812 239.993ZM493.677 252.187L392.043 334.67C393.344 336.014 394.703 337.302 396.115 338.531L496.657 256.934C495.73 255.307 494.736 253.723 493.677 252.187ZM501.345 267.106L405.174 345.155C406.95 346.234 408.782 347.232 410.663 348.144L503.171 273.067C502.656 271.041 502.045 269.052 501.345 267.106ZM505.08 285.494L422.489 352.522C424.914 353.163 427.395 353.669 429.922 354.032L505.073 293.042C505.146 291.773 505.184 290.494 505.184 289.207C505.184 287.961 505.149 286.723 505.08 285.494ZM501.948 309.554L446.819 354.295C472.731 351.399 494.091 333.516 501.948 309.554Z" fill="#C4C4C4"/>
</g>
<rect x="340.473" y="147" width="23.0996" height="481" fill="#00607C"/>
<g style="mix-blend-mode:overlay">
<ellipse cx="376.127" cy="147.5" rx="129.057" ry="128.5" fill="#00FED0"/>
</g>
<rect x="165.719" y="219" width="13.0563" height="376" fill="#00607C"/>
<g style="mix-blend-mode:overlay">
<ellipse cx="172.247" cy="314.5" rx="80.8488" ry="80.5" fill="#00FED0"/>
</g>
<path d="M732.705 543.833C816.14 543.833 897.296 550.006 907.5 551.5C941.833 554.333 979.761 555.46 1030 569C1100.5 588 1132.17 612 1173.5 629H795.436H2.013V478.389C35.4696 469.723 117.639 458.397 178.664 482.423C254.945 512.456 276.022 587.761 334.739 596.726C393.455 605.691 644.5 543.833 732.705 543.833Z" fill="#00BDAF"/>
<path d="M658.344 558.23C712.177 565.523 759.447 607.782 776.353 628H-1V579.967C42.3537 592.355 149.75 605.351 232.507 558.23C335.954 499.329 399.227 533.688 479.071 548.413C558.915 563.138 591.054 549.114 658.344 558.23Z" fill="#00FED0"/>
</svg>
