<svg width="65" height="16" viewBox="0 0 65 16" fill="none" xmlns="http://www.w3.org/2000/svg">
<path d="M0.358875 3.328V0.472H8.75888V3.328H6.23888V16H2.87888V3.328H0.358875ZM16.4618 0.232C18.4458 0.232 19.4378 1.288 19.4378 3.4V16H16.0778V10.792H13.6538V16H10.2938V3.4C10.2938 1.288 11.2858 0.232 13.2698 0.232H16.4618ZM13.6538 8.2H16.0778V2.992C16.0778 2.864 16.0298 2.752 15.9338 2.656C15.8538 2.56 15.7498 2.512 15.6218 2.512H14.1098C13.9818 2.512 13.8698 2.56 13.7738 2.656C13.6938 2.752 13.6538 2.864 13.6538 2.992V8.2ZM25.2782 16H21.9182V3.4C21.9182 1.288 22.9102 0.232 24.8942 0.232H26.6702C27.8382 0.232 28.6702 0.616 29.1662 1.384C29.6302 0.616 30.4622 0.232 31.6622 0.232H33.4382C35.4222 0.232 36.4142 1.288 36.4142 3.4V16H33.0542V3.112C33.0542 2.984 33.0062 2.872 32.9102 2.776C32.8302 2.68 32.7262 2.632 32.5982 2.632H31.3022C31.1742 2.632 31.0622 2.68 30.9662 2.776C30.8862 2.872 30.8462 2.984 30.8462 3.112V16H27.4862V3.112C27.4862 2.984 27.4382 2.872 27.3422 2.776C27.2622 2.68 27.1582 2.632 27.0302 2.632H25.7342C25.6062 2.632 25.4942 2.68 25.3982 2.776C25.3182 2.872 25.2782 2.984 25.2782 3.112V16ZM44.8914 0.232C46.8754 0.232 47.8674 1.288 47.8674 3.4V16H44.5074V10.792H42.0834V16H38.7234V3.4C38.7234 1.288 39.7154 0.232 41.6994 0.232H44.8914ZM42.0834 8.2H44.5074V2.992C44.5074 2.864 44.4594 2.752 44.3634 2.656C44.2834 2.56 44.1794 2.512 44.0514 2.512H42.5394C42.4114 2.512 42.2994 2.56 42.2034 2.656C42.1234 2.752 42.0834 2.864 42.0834 2.992V8.2ZM53.7079 16H50.3479V3.4C50.3479 1.288 51.3399 0.232 53.3239 0.232H55.0999C56.2679 0.232 57.0999 0.616 57.5959 1.384C58.0599 0.616 58.8919 0.232 60.0919 0.232H61.8679C63.8519 0.232 64.8439 1.288 64.8439 3.4V16H61.4839V3.112C61.4839 2.984 61.4359 2.872 61.3399 2.776C61.2599 2.68 61.1559 2.632 61.0279 2.632H59.7319C59.6039 2.632 59.4919 2.68 59.3959 2.776C59.3159 2.872 59.2759 2.984 59.2759 3.112V16H55.9159V3.112C55.9159 2.984 55.8679 2.872 55.7719 2.776C55.6919 2.68 55.5879 2.632 55.4599 2.632H54.1639C54.0359 2.632 53.9239 2.68 53.8279 2.776C53.7479 2.872 53.7079 2.984 53.7079 3.112V16Z" fill="#0082AA"/>
</svg>
