<svg width="27" height="27" viewBox="0 0 27 27" fill="none" xmlns="http://www.w3.org/2000/svg">
<g opacity="0.7">
<mask id="mask0" mask-type="alpha" maskUnits="userSpaceOnUse" x="0" y="0" width="27" height="27">
<rect width="27" height="27" fill="#C4C4C4"/>
</mask>
<g mask="url(#mask0)">
<rect x="2.75" y="6.75" width="17.5" height="17.5" rx="2.25" stroke="#0082AA" stroke-width="1.5"/>
<mask id="path-3-inside-1" fill="white">
<path fill-rule="evenodd" clip-rule="evenodd" d="M7.44995 3.19995C5.7931 3.19995 4.44995 4.5431 4.44995 6.19995V7H17C18.6569 7 20 8.34315 20 10V22.75H21C22.6568 22.75 24 21.4068 24 19.7499V6.19995C24 4.5431 22.6568 3.19995 20.9999 3.19995H7.44995Z"/>
</mask>
<path d="M4.44995 7H2.94995V8.5H4.44995V7ZM20 22.75H18.5V24.25H20V22.75ZM5.94995 6.19995C5.94995 5.37152 6.62152 4.69995 7.44995 4.69995V1.69995C4.96467 1.69995 2.94995 3.71467 2.94995 6.19995H5.94995ZM5.94995 7V6.19995H2.94995V7H5.94995ZM4.44995 8.5H17V5.5H4.44995V8.5ZM17 8.5C17.8284 8.5 18.5 9.17157 18.5 10H21.5C21.5 7.51472 19.4853 5.5 17 5.5V8.5ZM18.5 10V22.75H21.5V10H18.5ZM21 21.25H20V24.25H21V21.25ZM22.5 19.7499C22.5 20.5784 21.8284 21.25 21 21.25V24.25C23.4852 24.25 25.5 22.2352 25.5 19.7499H22.5ZM22.5 6.19995V19.7499H25.5V6.19995H22.5ZM20.9999 4.69995C21.8284 4.69995 22.5 5.37153 22.5 6.19995H25.5C25.5 3.71467 23.4852 1.69995 20.9999 1.69995V4.69995ZM7.44995 4.69995H20.9999V1.69995H7.44995V4.69995Z" fill="#0082AA" mask="url(#path-3-inside-1)"/>
</g>
</g>
</svg>
