<svg width="48" height="53" viewBox="0 0 48 53" fill="none" xmlns="http://www.w3.org/2000/svg">
<path d="M31.2028 34.5754H29.6544L29.1056 34.0449C31.0264 31.805 32.1828 28.8971 32.1828 25.7338C32.1828 18.6802 26.4792 12.9626 19.4429 12.9626C12.4066 12.9626 6.70312 18.6802 6.70312 25.7338C6.70312 32.7874 12.4066 38.5049 19.4429 38.5049C22.5985 38.5049 25.4993 37.3457 27.7336 35.4202L28.2628 35.9704V37.5226L38.0627 47.3269L40.983 44.3993L31.2028 34.5754ZM19.4429 34.5754C14.5626 34.5754 10.6231 30.6261 10.6231 25.7338C10.6231 20.8415 14.5626 16.8922 19.4429 16.8922C24.3233 16.8922 28.2628 20.8415 28.2628 25.7338C28.2628 30.6261 24.3233 34.5754 19.4429 34.5754Z" fill="white"/>
</svg>
