<svg width="38" height="39" viewBox="0 0 38 39" fill="none" xmlns="http://www.w3.org/2000/svg">
<path d="M19.0002 15.8366C17.2586 15.8366 15.8336 17.2616 15.8336 19.0032C15.8336 20.7449 17.2586 22.1699 19.0002 22.1699C20.7419 22.1699 22.1669 20.7449 22.1669 19.0032C22.1669 17.2616 20.7419 15.8366 19.0002 15.8366ZM30.0836 4.75323H7.91691C6.15941 4.75323 4.75024 6.17823 4.75024 7.9199V30.0866C4.75024 31.8282 6.15941 33.2532 7.91691 33.2532H30.0836C31.8411 33.2532 33.2502 31.8282 33.2502 30.0866V7.9199C33.2502 6.17823 31.8411 4.75323 30.0836 4.75323ZM27.3127 19.0032C27.3127 19.3674 27.2811 19.7316 27.2336 20.0799L29.5769 21.9166C29.7827 22.0907 29.8461 22.3916 29.7036 22.6291L27.4869 26.4607C27.3444 26.6982 27.0594 26.7932 26.8061 26.6982L24.0511 25.5899C23.4811 26.0332 22.8477 26.3974 22.1827 26.6824L21.7711 29.6116C21.7236 29.8807 21.4861 30.0866 21.2169 30.0866H16.7836C16.5144 30.0866 16.2769 29.8807 16.2294 29.6274L15.8177 26.6982C15.1369 26.4132 14.5194 26.0491 13.9494 25.6057L11.1944 26.7141C10.9411 26.8091 10.6561 26.7141 10.5136 26.4766L8.29691 22.6449C8.15441 22.4074 8.21774 22.1066 8.42358 21.9324L10.7669 20.0957C10.7194 19.7316 10.6877 19.3674 10.6877 19.0032C10.6877 18.6391 10.7194 18.2749 10.7669 17.9266L8.42358 16.0899C8.21774 15.9157 8.15441 15.6149 8.29691 15.3774L10.5136 11.5457C10.6561 11.3082 10.9411 11.2132 11.1944 11.3082L13.9494 12.4166C14.5194 11.9732 15.1527 11.6091 15.8177 11.3241L16.2294 8.3949C16.2769 8.12574 16.5144 7.9199 16.7836 7.9199H21.2169C21.4861 7.9199 21.7236 8.12573 21.7711 8.37907L22.1827 11.3082C22.8636 11.5932 23.4811 11.9574 24.0511 12.4007L26.8061 11.2924C27.0594 11.1974 27.3444 11.2924 27.4869 11.5299L29.7036 15.3616C29.8461 15.5991 29.7827 15.8999 29.5769 16.0741L27.2336 17.9107C27.2811 18.2749 27.3127 18.6391 27.3127 19.0032Z" fill="#C4C4C4"/>
</svg>
