<svg width="44" height="43" viewBox="0 0 44 43" fill="none" xmlns="http://www.w3.org/2000/svg">
<path d="M22.2297 12.618V5.49414H4.42432V37.5514H40.0351V12.618H22.2297ZM11.5465 33.9895H7.98539V30.4276H11.5465V33.9895ZM11.5465 26.8657H7.98539V23.3037H11.5465V26.8657ZM11.5465 19.7418H7.98539V16.1799H11.5465V19.7418ZM11.5465 12.618H7.98539V9.05606H11.5465V12.618ZM18.6686 33.9895H15.1075V30.4276H18.6686V33.9895ZM18.6686 26.8657H15.1075V23.3037H18.6686V26.8657ZM18.6686 19.7418H15.1075V16.1799H18.6686V19.7418ZM18.6686 12.618H15.1075V9.05606H18.6686V12.618ZM36.474 33.9895H22.2297V30.4276H25.7908V26.8657H22.2297V23.3037H25.7908V19.7418H22.2297V16.1799H36.474V33.9895ZM32.9129 19.7418H29.3519V23.3037H32.9129V19.7418ZM32.9129 26.8657H29.3519V30.4276H32.9129V26.8657Z" fill="white"/>
</svg>
