<svg width="43" height="43" viewBox="0 0 43 43" fill="none" xmlns="http://www.w3.org/2000/svg">
<path d="M21.3669 12.4666V5.34277H3.56152V37.4H39.1723V12.4666H21.3669ZM10.6837 33.8381H7.1226V30.2762H10.6837V33.8381ZM10.6837 26.7143H7.1226V23.1524H10.6837V26.7143ZM10.6837 19.5904H7.1226V16.0285H10.6837V19.5904ZM10.6837 12.4666H7.1226V8.90469H10.6837V12.4666ZM17.8058 33.8381H14.2448V30.2762H17.8058V33.8381ZM17.8058 26.7143H14.2448V23.1524H17.8058V26.7143ZM17.8058 19.5904H14.2448V16.0285H17.8058V19.5904ZM17.8058 12.4666H14.2448V8.90469H17.8058V12.4666ZM35.6112 33.8381H21.3669V30.2762H24.928V26.7143H21.3669V23.1524H24.928V19.5904H21.3669V16.0285H35.6112V33.8381ZM32.0501 19.5904H28.4891V23.1524H32.0501V19.5904ZM32.0501 26.7143H28.4891V30.2762H32.0501V26.7143Z" fill="#00B494"/>
</svg>
