<svg width="138" height="151" viewBox="0 0 138 151" fill="none" xmlns="http://www.w3.org/2000/svg">
<path d="M93.5336 62.0666L110.934 104.6L120.6 31.1332L112.867 11.7999L93.5336 62.0666Z" fill="#D2B771"/>
<path d="M33.6002 133.6C35.1468 135.146 17.4891 130.377 8.46685 127.8L0.733521 108.466L37.4668 91.0664C43.9113 105.244 32.0535 132.053 33.6002 133.6Z" fill="#FFE4DB"/>
<path d="M126.4 147.133C127.947 148.68 114.156 145.844 105.134 143.266L89.6669 100.733L110.934 102.666C117.378 116.844 124.854 145.586 126.4 147.133Z" fill="#FFE4DB"/>
<path d="M20.0668 118.133L93.5334 129.733L101.267 151L27.8001 137.467L20.0668 118.133Z" fill="#FFD8C2"/>
<path d="M110.933 104.6L126.4 147.133L138 73.6666L130.267 54.3333L110.933 104.6Z" fill="#D29471"/>
<path fill-rule="evenodd" clip-rule="evenodd" d="M107.526 50.1496L113.71 12.3541L39.4203 0.200073L33.1892 38.2862L12.5969 34.9999L0.733643 109.336L21.0352 112.576L20.067 118.494L94.3564 130.648L95.3721 124.44L119.102 128.227L130.966 53.8903L107.526 50.1496Z" fill="#9A8024"/>
</svg>
