<svg width="138" height="151" viewBox="0 0 138 151" fill="none" xmlns="http://www.w3.org/2000/svg">
<path d="M92.7999 61.8667L110.2 104.4L119.867 30.9334L112.133 11.6001L92.7999 61.8667Z" fill="#D2B771"/>
<path d="M32.8666 133.4C34.4133 134.947 16.7555 130.178 7.73333 127.6L0 108.267L36.7333 90.8666C43.1777 105.044 31.32 131.853 32.8666 133.4Z" fill="#FFF7DB"/>
<path d="M125.667 146.933C127.213 148.48 113.422 145.644 104.4 143.067L88.9333 100.533L110.2 102.467C116.644 116.644 124.12 145.387 125.667 146.933Z" fill="#FFF7DB"/>
<path d="M19.3333 117.933L92.7999 129.533L100.533 150.8L27.0666 137.267L19.3333 117.933Z" fill="#FFF0BA"/>
<path d="M110.2 104.4L125.667 146.933L137.267 73.4667L129.533 54.1334L110.2 104.4Z" fill="#D2B771"/>
<path fill-rule="evenodd" clip-rule="evenodd" d="M106.792 49.9497L112.976 12.154L38.6865 0L32.4555 38.0863L11.8634 34.8L0.00012207 109.136L20.3014 112.376L19.3333 118.294L93.6227 130.448L94.6383 124.24L118.369 128.027L130.232 53.6904L106.792 49.9497Z" fill="#FFE37E"/>
</svg>
