<svg width="2000" height="1432" viewBox="0 0 2000 1432" fill="none" xmlns="http://www.w3.org/2000/svg">
<mask id="mask0" mask-type="alpha" maskUnits="userSpaceOnUse" x="0" y="0" width="2000" height="1432">
<rect width="2000" height="1432" fill="#C4C4C4"/>
</mask>
<g mask="url(#mask0)">
<path d="M-347 1419.33C114.413 1355.44 1045.35 1229.49 1077.79 1236.86C1110.23 1244.23 1865.45 1357.89 2239 1428.55" stroke="white" stroke-opacity="0.4" stroke-width="20"/>
<path d="M-329.077 424.178H-270.911L-145.198 381.763C-140.82 389.139 -124.559 399.467 -94.538 381.763C-64.517 364.059 -33.2451 344.88 -21.3618 337.504H31.175L89.3407 315.374L141.878 295.089H192.538H265.714L325.756 265.583H376.417L487.119 228.7L605.327 193.662L686.008 164.156L759.185 127.273L789.206 99.6113C814.223 108.832 868.386 127.273 884.898 127.273C901.409 127.273 945.565 151.862 965.579 164.156L993.724 127.273C996.226 108.832 1004.23 77.4818 1016.24 99.6113C1028.25 121.741 1046.26 151.862 1053.77 164.156L1096.92 193.662H1207.62L1252.66 228.7L1353.98 265.583H1391.5H1449.67L1487.19 295.089L1571.63 337.504H1674.83L1719.86 381.763C1737.37 392.213 1779.52 416.064 1808.04 427.866C1878.59 460.323 1925 478.272 1939.39 483.19H2020.07L2145.78 551.423L2237.72 593.838" stroke="white" stroke-width="5"/>
<path d="M821.585 772.373C904.528 798.178 919.274 812.923 956.138 792.648C993.002 772.373 1022.49 759.471 1042.77 698.645C1058.99 649.985 1098.68 555.491 1116.5 514.326C1125.1 494.665 1137.14 450.551 1116.5 431.382C1095.85 412.213 1058.74 390.218 1042.77 381.616" stroke="white" stroke-width="9"/>
<path d="M364.473 613.858L193.056 619.388M370.002 689.429L202.272 706.018M1133.08 905.083L1153.36 860.846L1212.34 831.355L1133.08 798.178M1359.8 877.435C1354.27 886.651 1342.1 909.507 1337.68 927.201C1333.25 944.896 1329.69 989.87 1328.46 1010.14" stroke="white" stroke-width="8"/>
<path d="M1313.72 1000.93C1351.81 1030.42 1436.1 1090.51 1468.55 1094.93C1509.1 1100.46 1603.1 1124.42 1628.9 1094.93C1654.71 1065.44 1682.36 1011.99 1710 1000.93C1732.14 992.074 1793.27 980.856 1822.44 965.383M1881.42 812.923C1875.32 834.599 1865.19 869.569 1855.85 899.553M1772.67 1273.72L1881.42 1113.36L1949.62 1067.28L1822.44 965.383M1822.44 965.383C1829.7 961.531 1834.98 957.415 1837.18 953.006C1841.15 945.066 1848.24 923.961 1855.85 899.553M1127.55 908.769L1077.79 862.689L825.271 812.923M825.271 812.923L801.309 862.689L749.7 875.592L690.718 927.201M825.271 812.923C825.271 812.923 834.118 834.304 825.271 794.491C816.423 754.678 777.348 720.149 758.916 707.861M690.718 927.201L714.679 976.967M690.718 927.201H581.969V884.808L539.576 823.982L561.694 794.491L524.83 755.784M524.83 755.784C549.898 766.987 585.656 735.876 600.401 718.92M524.83 755.784C515.487 752.562 501.244 746.637 489.81 739.604M600.401 718.92L581.969 667.311H471.378C471.378 678.37 471.378 704.175 471.378 718.92C471.378 725.934 479.439 733.225 489.81 739.604M600.401 718.92L661.227 707.861L642.795 582.524M642.795 582.524H513.771L524.83 425.853L661.227 398.205M642.795 582.524L661.227 571.465V398.205M661.227 398.205L758.916 385.43M758.916 385.43L900.842 366.87C924.53 362.725 982.013 358.694 1028.39 374.255C1030.13 374.837 1031.85 375.448 1033.55 376.086C1080.74 393.781 1239.99 452.272 1313.72 479.305M758.916 385.43L714.679 667.311L758.916 707.861M758.916 707.861L661.227 718.92M489.81 739.604C489.195 748.069 481.7 766.106 456.632 770.53C443.273 772.887 411.869 776.048 379.218 778.95M283.372 875.592L301.804 785.275C321.03 783.841 350.603 781.494 379.218 778.95M379.218 778.95L364.473 593.583L347.884 453.501M1855.85 899.553L1772.67 884.808L1726.59 917.985M1726.59 917.985L1619.69 866.376M1726.59 917.985L1678.67 1000.93H1660.24L1588.35 953.006" stroke="white" stroke-width="10"/>
<path d="M1037.24 376.086C1007.13 369.942 943.235 361.341 928.49 376.086C913.744 390.832 831.415 550.575 792.093 628.604C788.407 638.434 783.246 665.836 792.093 696.802C800.941 727.768 815.44 769.915 821.584 787.119" stroke="white" stroke-width="4"/>
<path d="M1005.9 851.63C1018.19 839.342 1052.72 812.186 1092.53 801.864C1142.3 788.961 1206.81 811.08 1251.05 814.766C1286.44 817.715 1316.17 840.571 1326.62 851.63C1370.86 876.206 1463.02 934.205 1477.76 969.594C1496.19 1013.83 1481.45 1024.89 1499.88 1056.22C1518.31 1087.56 1555.18 1078.34 1638.12 1074.66L1658.39 1146.54C1666.38 1174.19 1680.51 1230.59 1673.14 1235.01" stroke="white" stroke-width="10"/>
<path fill-rule="evenodd" clip-rule="evenodd" d="M1129.04 921.134C1150.83 906.605 1174.8 894.931 1203.59 901.707C1217.37 904.948 1230.13 915.688 1243.44 929.917C1248.36 935.172 1253.19 940.718 1258.11 946.366L1258.11 946.368C1259.79 948.297 1261.48 950.238 1263.19 952.183C1269.83 959.751 1276.68 967.314 1283.82 973.981C1297.23 986.5 1314 1007.31 1329.94 1027.88C1333.77 1032.82 1337.56 1037.75 1341.24 1042.54C1352.65 1057.4 1362.97 1070.85 1370.1 1078.69C1374.37 1083.39 1378.29 1088.96 1382.53 1095C1392.29 1108.88 1403.8 1125.25 1425.34 1139.2C1424.85 1139.09 1424.36 1138.98 1423.86 1138.86C1403.59 1134.04 1376.56 1134.1 1351.46 1135.25C1340.54 1135.75 1330.05 1136.45 1320.49 1137.09C1307.57 1137.95 1296.32 1138.7 1287.91 1138.7C1274.77 1138.7 1258.6 1142.15 1240.85 1145.94L1240.84 1145.94C1237.59 1146.64 1234.28 1147.34 1230.93 1148.04C1208.9 1152.63 1184.05 1157.13 1157.05 1157.13C1130.25 1157.13 1117.83 1152.7 1107.47 1147.42C1105.17 1146.24 1102.88 1144.97 1100.5 1143.64C1091.91 1138.86 1082.15 1133.43 1066.28 1129.65C1046.4 1124.91 1017.84 1121.65 989.876 1121.19C962.075 1120.73 933.957 1123 915.356 1129.85C907.476 1132.76 893.045 1134.91 874.083 1136.38C855.345 1137.84 832.852 1138.58 809.286 1138.93C777.731 1139.39 744.514 1139.13 715.992 1138.91H715.991C701.854 1138.8 688.871 1138.7 677.815 1138.7C644.13 1138.7 627.892 1142.91 615.228 1149.24C611.038 1151.33 607.15 1153.73 603.382 1156.04L603.377 1156.05C601.753 1157.05 600.152 1158.03 598.559 1158.97C593.095 1162.2 586.892 1165.46 578.144 1168.53C550.338 1178.26 462.811 1197.86 416.976 1207.63L399.635 1128.81C401.077 1126.68 402.585 1124.43 404.157 1122.09C411.368 1111.33 419.914 1098.58 429.554 1086.63C436.492 1078.02 443.767 1070.14 451.151 1064.11C458.581 1058.03 465.74 1054.13 472.451 1052.91C489.875 1049.74 513.144 1037.82 534.578 1024.81C556.246 1011.67 576.894 996.878 589.331 987.239L589.491 987.115L589.642 986.981C593.717 983.359 610.844 974.167 640.666 975.588C678.858 977.406 726.298 984.689 781.153 1001.15C785.29 1002.39 789.483 1003.65 793.718 1004.93L793.721 1004.93L793.721 1004.93C817.722 1012.16 843.061 1019.79 867.064 1026.09C895.227 1033.47 922.012 1039.15 942.963 1040.1C950.849 1040.46 960.011 1041.39 969.975 1042.4C972.556 1042.66 975.19 1042.92 977.87 1043.19C990.763 1044.46 1004.55 1045.64 1017.65 1045.64C1030.7 1045.64 1043.5 1044.47 1054.28 1040.83C1065.16 1037.15 1074.47 1030.76 1079.52 1020.09C1083.77 1011.12 1087.76 1001.15 1091.65 991.152C1092.45 989.094 1093.24 987.036 1094.04 984.983C1097.13 976.994 1100.19 969.083 1103.36 961.558C1107.35 952.101 1111.42 943.495 1115.76 936.417C1120.14 929.281 1124.55 924.127 1129.04 921.134ZM386.798 1126.31C386.312 1127.01 385.841 1127.68 385.386 1128.32L387.583 1129.88L406.536 1216.03L407.814 1221.84L413.636 1220.61C457.073 1211.43 552.161 1190.33 582.108 1179.85C591.792 1176.46 598.722 1172.81 604.663 1169.3C606.668 1168.12 608.478 1167 610.2 1165.94L610.201 1165.94C613.727 1163.77 616.884 1161.83 620.595 1159.97C630.972 1154.78 645.146 1150.7 677.815 1150.7C688.7 1150.7 701.584 1150.8 715.662 1150.91H715.665H715.667C744.266 1151.13 777.787 1151.39 809.461 1150.93C833.127 1150.58 855.907 1149.83 875.012 1148.35C893.893 1146.88 909.874 1144.66 919.505 1141.11C935.924 1135.06 962.181 1132.73 989.676 1133.19C1017.01 1133.64 1044.67 1136.84 1063.5 1141.32C1077.63 1144.68 1085.71 1149.17 1094.1 1153.83C1096.65 1155.25 1099.23 1156.68 1102.02 1158.11C1114.24 1164.34 1128.55 1169.13 1157.05 1169.13C1185.33 1169.13 1211.17 1164.41 1233.38 1159.79C1236.91 1159.05 1240.34 1158.32 1243.65 1157.62L1243.67 1157.61C1261.52 1153.81 1276.16 1150.7 1287.91 1150.7C1296.59 1150.7 1308.62 1149.9 1322.01 1149.01L1322.01 1149.01C1331.56 1148.38 1341.79 1147.7 1352.01 1147.24C1377.13 1146.08 1402.63 1146.14 1421.08 1150.53C1433.13 1153.4 1442.22 1152.89 1448.86 1152.51C1449.55 1152.47 1450.21 1152.43 1450.85 1152.4C1456.89 1155.08 1464.13 1158.31 1472.26 1161.95L1472.27 1161.95C1474.1 1162.77 1475.98 1163.61 1477.9 1164.47C1478.86 1165.37 1479.85 1166.33 1480.89 1167.37L1481.97 1166.29C1505.05 1176.6 1533.49 1189.25 1561.8 1201.36C1607.9 1221.09 1654.61 1239.82 1677.45 1244.57C1699.44 1249.16 1721.27 1254.62 1739.8 1261.18C1758.52 1267.8 1773.11 1275.27 1781.33 1283.49C1783.33 1285.49 1785.37 1287.45 1787.4 1289.39C1793.36 1295.09 1799.26 1300.74 1803.95 1307.37C1809.96 1315.87 1813.38 1325.28 1811.03 1337.06L1822.79 1339.41C1825.97 1323.54 1821.09 1310.83 1813.74 1300.44C1808.32 1292.77 1801.21 1285.97 1795.08 1280.11L1795.08 1280.11C1793.21 1278.32 1791.43 1276.62 1789.82 1275.01C1779.61 1264.8 1762.86 1256.61 1743.8 1249.86C1724.54 1243.05 1702.13 1237.46 1679.89 1232.83C1658.49 1228.37 1613.04 1210.23 1566.52 1190.33C1537.29 1177.83 1508.03 1164.79 1484.59 1154.32C1479.51 1149.7 1475.02 1146.47 1470.78 1144.29C1465.1 1141.36 1460.13 1140.45 1455.21 1140.31C1454.51 1140.29 1453.82 1140.29 1453.15 1140.29C1452.3 1139.92 1451.48 1139.55 1450.69 1139.21C1418.5 1125.04 1405.87 1107.07 1393.77 1089.86C1389.12 1083.25 1384.55 1076.75 1378.98 1070.62C1372.22 1063.18 1362.37 1050.36 1351.08 1035.65L1351.08 1035.65C1347.33 1030.77 1343.43 1025.69 1339.43 1020.52C1323.58 1000.08 1306.24 978.494 1292.01 965.208C1285.33 958.973 1278.81 951.79 1272.2 944.267C1270.57 942.404 1268.92 940.516 1267.27 938.618C1262.31 932.925 1257.28 927.146 1252.2 921.72C1238.79 907.379 1223.9 894.158 1206.34 890.026C1172.47 882.056 1144.83 896.187 1122.38 911.149C1115.81 915.53 1110.31 922.357 1105.54 930.139C1100.72 937.979 1096.38 947.229 1092.3 956.895C1089.06 964.6 1085.91 972.724 1082.82 980.729L1082.81 980.737L1082.81 980.743C1082.02 982.773 1081.24 984.795 1080.46 986.801C1076.58 996.789 1072.73 1006.41 1068.68 1014.95C1065.44 1021.79 1059.31 1026.46 1050.44 1029.46C1041.46 1032.49 1030.18 1033.64 1017.65 1033.64C1005.18 1033.64 991.899 1032.51 979.045 1031.25C976.474 1030.99 973.913 1030.73 971.378 1030.48L971.373 1030.48C961.367 1029.46 951.761 1028.49 943.508 1028.11C923.908 1027.22 898.162 1021.84 870.108 1014.48C846.334 1008.24 821.235 1000.68 797.225 993.45C792.978 992.17 788.766 990.902 784.601 989.652C728.865 972.931 680.459 965.469 641.237 963.601C609.377 962.084 588.972 971.654 581.835 977.867C569.68 987.277 549.486 1001.73 528.354 1014.55C506.902 1027.57 485.321 1038.37 470.304 1041.11C460.795 1042.83 451.781 1048.09 443.555 1054.82C435.283 1061.58 427.421 1070.15 420.213 1079.09C410.242 1091.46 401.076 1105.12 393.749 1116.05L393.749 1116.05C392.014 1118.64 390.383 1121.07 388.868 1123.3L386.261 1123.87L386.798 1126.31Z" fill="white"/>
<path d="M1044.61 700.488L1077.79 718.92L1280.54 733.666L1498.04 850.132M1566.23 886.651L1498.04 850.132M1498.04 850.132L1487.91 864.533M1446.43 923.515L1487.91 864.533M1531.21 809.237L1487.91 864.533" stroke="white" stroke-width="10"/>
<path d="M401.336 1120.74C400.108 1113.36 389.54 1100.83 357.1 1109.68C324.66 1118.52 303.033 1129.34 296.274 1133.64M296.274 1133.64L246.508 969.595L167.251 844.258M296.274 1133.64L323.922 1310.59" stroke="white" stroke-width="9"/>
</g>
</svg>
