<svg width="1233" height="534" viewBox="0 0 1233 534" fill="none" xmlns="http://www.w3.org/2000/svg">
<path d="M763 1C766.5 36.1667 771.4 110 763 124C758.838 130.936 744.544 139.05 726.5 149.681M640.5 220.5C603.5 274.5 626.5 366 616 422C607.6 466.8 612.5 515.333 616 534M640.5 220.5C593.166 266.667 486.6 355.1 439 339.5C422.915 334.228 406.683 323.11 390 309.969M640.5 220.5C648.425 208.933 658.095 198.696 668.5 189.579M239 234.5C175.8 245.7 53.6667 239.167 0.5 234.5M239 234.5C296.643 224.285 344.97 274.498 390 309.969M239 234.5V71.5M390 309.969V478M668.5 189.579L514 71.5M668.5 189.579C687.418 173.003 708.77 160.127 726.5 149.681M726.5 149.681C753.333 209.798 824.2 328.025 893 320C926.258 316.121 987.026 313.648 1050.5 312.128M1233 309.969C1211.53 309.969 1183.5 310.098 1152.5 310.421M1050.5 312.128V478M1050.5 312.128C1085.03 311.302 1120.36 310.757 1152.5 310.421M1152.5 310.421V204.5" stroke="white" stroke-opacity="0.46" stroke-width="10"/>
</svg>
