<svg width="70" height="70" viewBox="0 0 48 51" fill="none" xmlns="http://www.w3.org/2000/svg">
<g filter="url(#filter0_d)">
<path d="M24 4C16.26 4 10 10.26 10 18C10 28.5 24 44 24 44C24 44 38 28.5 38 18C38 10.26 31.74 4 24 4ZM24 23C21.24 23 19 20.76 19 18C19 15.24 21.24 13 24 13C26.76 13 29 15.24 29 18C29 20.76 26.76 23 24 23Z" fill="url(#paint0_linear)"/>
</g>
<defs>
<filter id="filter0_d" x="-3" y="0" width="54" height="55" filterUnits="userSpaceOnUse" color-interpolation-filters="sRGB">
<feFlood flood-opacity="0" result="BackgroundImageFix"/>
<feColorMatrix in="SourceAlpha" type="matrix" values="0 0 0 0 0 0 0 0 0 0 0 0 0 0 0 0 0 0 127 0"/>
<feOffset dy="4"/>
<feGaussianBlur stdDeviation="1.5"/>
<feColorMatrix type="matrix" values="0 0 0 0 0 0 0 0 0 0 0 0 0 0 0 0 0 0 0.45 0"/>
<feBlend mode="normal" in2="BackgroundImageFix" result="effect1_dropShadow"/>
<feBlend mode="normal" in="SourceGraphic" in2="effect1_dropShadow" result="shape"/>
</filter>
<linearGradient id="paint0_linear" x1="24" y1="4" x2="24" y2="44" gradientUnits="userSpaceOnUse">
<stop stop-color="#00FFE0"/>
<stop offset="0.7875" stop-color="#00B59F"/>
</linearGradient>
</defs>
</svg>
