<svg width="63" height="63" viewBox="0 0 63 63" fill="none" xmlns="http://www.w3.org/2000/svg">
<g filter="url(#filter0_d)">
<rect x="9" y="9" width="45" height="45" rx="10" fill="white"/>
</g>
<path d="M37.8333 35.3333H36.5167L36.05 34.8833C37.6833 32.9833 38.6667 30.5167 38.6667 27.8333C38.6667 21.85 33.8167 17 27.8333 17C21.85 17 17 21.85 17 27.8333C17 33.8167 21.85 38.6667 27.8333 38.6667C30.5167 38.6667 32.9833 37.6833 34.8833 36.05L35.3333 36.5167V37.8333L43.6667 46.15L46.15 43.6667L37.8333 35.3333ZM27.8333 35.3333C23.6833 35.3333 20.3333 31.9833 20.3333 27.8333C20.3333 23.6833 23.6833 20.3333 27.8333 20.3333C31.9833 20.3333 35.3333 23.6833 35.3333 27.8333C35.3333 31.9833 31.9833 35.3333 27.8333 35.3333ZM23.6667 27H32V28.6667H23.6667V27Z" fill="#00B494"/>
<defs>
<filter id="filter0_d" x="0" y="0" width="63" height="63" filterUnits="userSpaceOnUse" color-interpolation-filters="sRGB">
<feFlood flood-opacity="0" result="BackgroundImageFix"/>
<feColorMatrix in="SourceAlpha" type="matrix" values="0 0 0 0 0 0 0 0 0 0 0 0 0 0 0 0 0 0 127 0" result="hardAlpha"/>
<feOffset/>
<feGaussianBlur stdDeviation="4.5"/>
<feColorMatrix type="matrix" values="0 0 0 0 0 0 0 0 0 0 0 0 0 0 0 0 0 0 0.25 0"/>
<feBlend mode="normal" in2="BackgroundImageFix" result="effect1_dropShadow"/>
<feBlend mode="normal" in="SourceGraphic" in2="effect1_dropShadow" result="shape"/>
</filter>
</defs>
</svg>
