<svg width="35" height="35" viewBox="0 0 35 35" fill="none" xmlns="http://www.w3.org/2000/svg">
<path d="M17.4857 2.91667C9.43568 2.91667 2.90234 9.45001 2.90234 17.5C2.90234 25.55 9.43568 32.0833 17.4857 32.0833C25.5357 32.0833 32.069 25.55 32.069 17.5C32.069 9.45001 25.5357 2.91667 17.4857 2.91667V2.91667ZM22.7503 12.1625C24.3107 12.1625 25.5648 13.4167 25.5648 14.9771C25.5648 16.5375 24.3107 17.7917 22.7503 17.7917C21.1898 17.7917 19.9357 16.5375 19.9357 14.9771C19.9211 13.4167 21.1898 12.1625 22.7503 12.1625V12.1625ZM14.0003 9.85834C15.8961 9.85834 17.4419 11.4042 17.4419 13.3C17.4419 15.1958 15.8961 16.7417 14.0003 16.7417C12.1044 16.7417 10.5586 15.1958 10.5586 13.3C10.5586 11.3896 12.0898 9.85834 14.0003 9.85834ZM14.0003 23.1729V28.6417C10.5003 27.5479 7.72943 24.85 6.50443 21.4083C8.03568 19.775 11.8565 18.9438 14.0003 18.9438C14.7732 18.9438 15.7503 19.0604 16.7711 19.2646C14.3794 20.5333 14.0003 22.2104 14.0003 23.1729ZM17.4857 29.1667C17.0919 29.1667 16.7128 29.1521 16.3336 29.1083V23.1729C16.3336 21.1021 20.6211 20.0667 22.7503 20.0667C24.3107 20.0667 27.0086 20.6354 28.3503 21.7438C26.644 26.075 22.4294 29.1667 17.4857 29.1667V29.1667Z" fill="white"/>
</svg>
