<svg width="38" height="38" viewBox="0 0 38 38" fill="none" xmlns="http://www.w3.org/2000/svg">
<path d="M25.333 17.4167C27.9613 17.4167 30.0672 15.2951 30.0672 12.6667C30.0672 10.0384 27.9613 7.91675 25.333 7.91675C22.7047 7.91675 20.583 10.0384 20.583 12.6667C20.583 15.2951 22.7047 17.4167 25.333 17.4167ZM12.6663 17.4167C15.2947 17.4167 17.4005 15.2951 17.4005 12.6667C17.4005 10.0384 15.2947 7.91675 12.6663 7.91675C10.038 7.91675 7.91634 10.0384 7.91634 12.6667C7.91634 15.2951 10.038 17.4167 12.6663 17.4167ZM12.6663 20.5834C8.97717 20.5834 1.58301 22.4359 1.58301 26.1251V30.0834H23.7497V26.1251C23.7497 22.4359 16.3555 20.5834 12.6663 20.5834ZM25.333 20.5834C24.8738 20.5834 24.3513 20.6151 23.7972 20.6626C25.6338 21.9926 26.9163 23.7817 26.9163 26.1251V30.0834H36.4163V26.1251C36.4163 22.4359 29.0222 20.5834 25.333 20.5834Z" fill="#00B494"/>
</svg>
