<svg width="30" height="33" viewBox="0 0 30 33" fill="none" xmlns="http://www.w3.org/2000/svg">
<g clip-path="url(#clip0)">
<path d="M19.375 21.5723H18.3875L18.0375 21.2341C19.2625 19.8059 20 17.9518 20 15.9348C20 11.4373 16.3625 7.79175 11.875 7.79175C7.3875 7.79175 3.75 11.4373 3.75 15.9348C3.75 20.4323 7.3875 24.0779 11.875 24.0779C13.8875 24.0779 15.7375 23.3387 17.1625 22.111L17.5 22.4618V23.4515L23.75 29.7028L25.6125 27.8362L19.375 21.5723ZM11.875 21.5723C8.7625 21.5723 6.25 19.0542 6.25 15.9348C6.25 12.8154 8.7625 10.2973 11.875 10.2973C14.9875 10.2973 17.5 12.8154 17.5 15.9348C17.5 19.0542 14.9875 21.5723 11.875 21.5723Z" fill="#00B494"/>
</g>
<defs>
<clipPath id="clip0">
<rect width="30" height="33" rx="10" fill="white"/>
</clipPath>
</defs>
</svg>
