<svg width="18" height="20" viewBox="0 0 18 20" fill="none" xmlns="http://www.w3.org/2000/svg">
<path d="M6 8.99994H4V10.9999H6V8.99994ZM10 8.99994H8V10.9999H10V8.99994ZM14 8.99994H12V10.9999H14V8.99994ZM16 1.99994H15V-6.10352e-05H13V1.99994H5V-6.10352e-05H3V1.99994H2C0.89 1.99994 0.00999999 2.89994 0.00999999 3.99994L0 17.9999C0 19.0999 0.89 19.9999 2 19.9999H16C17.1 19.9999 18 19.0999 18 17.9999V3.99994C18 2.89994 17.1 1.99994 16 1.99994ZM16 17.9999H2V6.99994H16V17.9999Z" fill="white"/>
</svg>
